<svg width="640" height="640" viewBox="0 0 640 640" fill="none" xmlns="http://www.w3.org/2000/svg">
<rect width="640" height="640" rx="120" fill="black"/>
<path d="M171.131 511C161.602 511 153.702 508.859 147.432 504.576C141.163 500.293 136.523 494.75 133.514 487.948C130.505 481.145 129 474.091 129 466.784C129 452.927 133.389 442.346 142.166 435.04C150.943 427.481 161.476 423.702 173.764 423.702C186.304 423.702 196.209 427.481 203.482 435.04C210.755 442.598 214.391 452.676 214.391 465.273C214.391 481.397 210.002 492.986 201.225 500.041C192.699 507.347 182.667 511 171.131 511Z" fill="white"/>
<path d="M236.398 401.467C234.965 383.661 233.942 366.367 233.328 349.584C232.919 332.801 232.714 316.94 232.714 301.999C232.714 277.234 233.226 255.028 234.249 235.38C235.272 215.527 236.296 198.438 237.319 184.111C219.718 185.134 202.628 186.465 186.05 188.102C169.472 189.739 154.122 191.888 140 194.549L140.614 143.28C164.56 138.982 189.12 135.912 214.294 134.07C239.468 132.023 264.642 131 289.816 131C307.827 131 325.019 131.409 341.392 132.228C357.97 133.047 373.832 134.275 388.977 135.912L388.67 189.023C374.343 186.772 358.789 185.237 342.006 184.418C325.428 183.395 308.441 182.883 291.044 182.883C290.021 196.8 289.1 212.355 288.281 229.547C287.462 246.534 287.053 264.75 287.053 284.193C287.053 301.59 287.462 319.907 288.281 339.146C289.304 358.385 290.532 378.647 291.965 399.932L236.398 401.467Z" fill="white"/>
<path d="M287.331 477.279L284.487 426.29C287.682 425.381 291.447 424.668 295.782 424.152C303.645 419.932 312.758 414.184 323.121 406.909C333.748 399.408 344.7 391.173 355.977 382.202C367.254 373.232 378.164 364.347 388.709 355.547C399.283 346.493 408.566 338.317 416.557 331.018C424.548 323.72 430.455 317.977 434.277 313.792C435.659 312.152 436.629 310.978 437.188 310.271C437.777 309.31 438.087 308.703 438.117 308.449C438.087 308.703 436.433 308.635 433.155 308.245C429.877 307.856 426.95 307.508 424.374 307.202C415.945 306.2 405.551 305.738 393.194 305.816C381.102 305.668 367.982 306.171 353.834 307.325C339.687 308.479 325.419 310.649 311.03 313.837L307.789 251.201C332.511 248.984 355.911 247.899 377.989 247.945C400.331 247.765 421.22 248.83 440.654 251.14C448.147 252.03 456.078 253.23 464.447 254.741C473.05 256.279 481.064 258.778 488.489 262.238C495.944 265.444 501.798 270.135 506.05 276.311C510.333 282.233 511.901 290.023 510.753 299.682C509.937 306.545 506.232 314.74 499.639 324.267C493.309 333.567 484.619 343.747 473.569 354.807C462.783 365.64 450.283 376.913 436.068 388.628C422.087 400.37 407.053 411.987 390.964 423.479C403.933 424.247 416.74 425.382 429.384 426.885C447.414 429.028 463.291 431.301 477.015 433.706C490.739 436.11 499.75 438.212 504.048 440.012L497.33 499.53C490.835 498.243 480.358 496.482 465.901 494.248C451.414 492.269 435.39 490.236 417.829 488.148C401.438 486.2 384.681 484.338 367.558 482.56C350.639 481.065 335.007 479.723 320.664 478.534C306.524 477.627 295.413 477.208 287.331 477.279Z" fill="white"/>
</svg>
